<svg viewBox="0 0 330 200" xmlns="http://www.w3.org/2000/svg"><g><g><g><g><g><line x1="58.59375" y1="177" x2="53.59375" y2="177" style="visibility: inherit;" fill="rgb(0, 0, 0)" stroke="rgb(204, 204, 204)" stroke-width="1px"></line><line x1="58.59375" y1="159.3" x2="53.59375" y2="159.3" style="visibility: inherit;" fill="rgb(0, 0, 0)" stroke="rgb(204, 204, 204)" stroke-width="1px"></line><line x1="58.59375" y1="141.6" x2="53.59375" y2="141.6" style="visibility: inherit;" fill="rgb(0, 0, 0)" stroke="rgb(204, 204, 204)" stroke-width="1px"></line><line x1="58.59375" y1="123.89999999999999" x2="53.59375" y2="123.89999999999999" style="visibility: inherit;" fill="rgb(0, 0, 0)" stroke="rgb(204, 204, 204)" stroke-width="1px"></line><line x1="58.59375" y1="106.2" x2="53.59375" y2="106.2" style="visibility: inherit;" fill="rgb(0, 0, 0)" stroke="rgb(204, 204, 204)" stroke-width="1px"></line><line x1="58.59375" y1="88.5" x2="53.59375" y2="88.5" style="visibility: inherit;" fill="rgb(0, 0, 0)" stroke="rgb(204, 204, 204)" stroke-width="1px"></line><line x1="58.59375" y1="70.8" x2="53.59375" y2="70.8" style="visibility: inherit;" fill="rgb(0, 0, 0)" stroke="rgb(204, 204, 204)" stroke-width="1px"></line><line x1="58.59375" y1="53.10000000000001" x2="53.59375" y2="53.10000000000001" style="visibility: inherit;" fill="rgb(0, 0, 0)" stroke="rgb(204, 204, 204)" stroke-width="1px"></line><line x1="58.59375" y1="35.400000000000006" x2="53.59375" y2="35.400000000000006" style="visibility: inherit;" fill="rgb(0, 0, 0)" stroke="rgb(204, 204, 204)" stroke-width="1px"></line><line x1="58.59375" y1="17.69999999999999" x2="53.59375" y2="17.69999999999999" style="visibility: inherit;" fill="rgb(0, 0, 0)" stroke="rgb(204, 204, 204)" stroke-width="1px"></line><line x1="58.59375" y1="0" x2="53.59375" y2="0" style="visibility: inherit;" fill="rgb(0, 0, 0)" stroke="rgb(204, 204, 204)" stroke-width="1px"></line></g><g transform="translate(48.59375, 0)"><text x="0" y="177" dx="0em" dy="0.3em" style="text-anchor: end; visibility: hidden; font-family: &quot;Helvetica Neue&quot;, sans-serif; font-size: 12px; font-weight: 200;" fill="rgb(50, 49, 63)" stroke="none" stroke-width="1px">-0.05</text><text x="0" y="159.3" dx="0em" dy="0.3em" style="text-anchor: end; visibility: inherit; font-family: &quot;Helvetica Neue&quot;, sans-serif; font-size: 12px; font-weight: 200;" fill="rgb(50, 49, 63)" stroke="none" stroke-width="1px">0</text><text x="0" y="141.6" dx="0em" dy="0.3em" style="text-anchor: end; visibility: hidden; font-family: &quot;Helvetica Neue&quot;, sans-serif; font-size: 12px; font-weight: 200;" fill="rgb(50, 49, 63)" stroke="none" stroke-width="1px">0.05</text><text x="0" y="123.89999999999999" dx="0em" dy="0.3em" style="text-anchor: end; visibility: inherit; font-family: &quot;Helvetica Neue&quot;, sans-serif; font-size: 12px; font-weight: 200;" fill="rgb(50, 49, 63)" stroke="none" stroke-width="1px">0.1</text><text x="0" y="106.2" dx="0em" dy="0.3em" style="text-anchor: end; visibility: hidden; font-family: &quot;Helvetica Neue&quot;, sans-serif; font-size: 12px; font-weight: 200;" fill="rgb(50, 49, 63)" stroke="none" stroke-width="1px">0.15</text><text x="0" y="88.5" dx="0em" dy="0.3em" style="text-anchor: end; visibility: inherit; font-family: &quot;Helvetica Neue&quot;, sans-serif; font-size: 12px; font-weight: 200;" fill="rgb(50, 49, 63)" stroke="none" stroke-width="1px">0.2</text><text x="0" y="70.8" dx="0em" dy="0.3em" style="text-anchor: end; visibility: hidden; font-family: &quot;Helvetica Neue&quot;, sans-serif; font-size: 12px; font-weight: 200;" fill="rgb(50, 49, 63)" stroke="none" stroke-width="1px">0.25</text><text x="0" y="53.10000000000001" dx="0em" dy="0.3em" style="text-anchor: end; visibility: inherit; font-family: &quot;Helvetica Neue&quot;, sans-serif; font-size: 12px; font-weight: 200;" fill="rgb(50, 49, 63)" stroke="none" stroke-width="1px">0.3</text><text x="0" y="35.400000000000006" dx="0em" dy="0.3em" style="text-anchor: end; visibility: hidden; font-family: &quot;Helvetica Neue&quot;, sans-serif; font-size: 12px; font-weight: 200;" fill="rgb(50, 49, 63)" stroke="none" stroke-width="1px">0.35</text><text x="0" y="17.69999999999999" dx="0em" dy="0.3em" style="text-anchor: end; visibility: inherit; font-family: &quot;Helvetica Neue&quot;, sans-serif; font-size: 12px; font-weight: 200;" fill="rgb(50, 49, 63)" stroke="none" stroke-width="1px">0.4</text><text x="0" y="0" dx="0em" dy="0.3em" style="text-anchor: end; visibility: hidden; font-family: &quot;Helvetica Neue&quot;, sans-serif; font-size: 12px; font-weight: 200;" fill="rgb(50, 49, 63)" stroke="none" stroke-width="1px">0.45</text></g><line x1="58.59375" y1="0" x2="58.59375" y2="177" fill="rgb(0, 0, 0)" stroke="rgb(204, 204, 204)" stroke-width="1px"></line></g></g><g transform="translate(58, 0)" clip-path="url(#clip_0)"><clipPath id="clip_0"><rect width="271" height="177"></rect></clipPath><g><g><g><line x1="0" y1="0" x2="0" y2="177" fill="rgb(0, 0, 0)" stroke="rgb(60, 60, 60)" stroke-width="1px" opacity="0.25"></line><line x1="24.673295454545457" y1="0" x2="24.673295454545457" y2="177" fill="rgb(0, 0, 0)" stroke="rgb(60, 60, 60)" stroke-width="1px" opacity="0.25"></line><line x1="49.346590909090914" y1="0" x2="49.346590909090914" y2="177" fill="rgb(0, 0, 0)" stroke="rgb(60, 60, 60)" stroke-width="1px" opacity="0.25"></line><line x1="74.01988636363636" y1="0" x2="74.01988636363636" y2="177" fill="rgb(0, 0, 0)" stroke="rgb(60, 60, 60)" stroke-width="1px" opacity="0.25"></line><line x1="98.69318181818183" y1="0" x2="98.69318181818183" y2="177" fill="rgb(0, 0, 0)" stroke="rgb(60, 60, 60)" stroke-width="1px" opacity="0.25"></line><line x1="123.36647727272727" y1="0" x2="123.36647727272727" y2="177" fill="rgb(0, 0, 0)" stroke="rgb(60, 60, 60)" stroke-width="1px" opacity="0.25"></line><line x1="148.03977272727272" y1="0" x2="148.03977272727272" y2="177" fill="rgb(0, 0, 0)" stroke="rgb(60, 60, 60)" stroke-width="1px" opacity="0.25"></line><line x1="172.7130681818182" y1="0" x2="172.7130681818182" y2="177" fill="rgb(0, 0, 0)" stroke="rgb(60, 60, 60)" stroke-width="1px" opacity="0.25"></line><line x1="197.38636363636365" y1="0" x2="197.38636363636365" y2="177" fill="rgb(0, 0, 0)" stroke="rgb(60, 60, 60)" stroke-width="1px" opacity="0.25"></line><line x1="222.0596590909091" y1="0" x2="222.0596590909091" y2="177" fill="rgb(0, 0, 0)" stroke="rgb(60, 60, 60)" stroke-width="1px" opacity="0.25"></line><line x1="246.73295454545453" y1="0" x2="246.73295454545453" y2="177" fill="rgb(0, 0, 0)" stroke="rgb(60, 60, 60)" stroke-width="1px" opacity="0.25"></line><line x1="271.40625" y1="0" x2="271.40625" y2="177" fill="rgb(0, 0, 0)" stroke="rgb(60, 60, 60)" stroke-width="1px" opacity="0.25"></line></g><g><line x1="0" y1="177" x2="271.40625" y2="177" fill="rgb(0, 0, 0)" stroke="rgb(60, 60, 60)" stroke-width="1px" opacity="0.25"></line><line x1="0" y1="159.3" x2="271.40625" y2="159.3" fill="rgb(0, 0, 0)" stroke="rgb(60, 60, 60)" stroke-width="1px" opacity="0.25"></line><line x1="0" y1="141.6" x2="271.40625" y2="141.6" fill="rgb(0, 0, 0)" stroke="rgb(60, 60, 60)" stroke-width="1px" opacity="0.25"></line><line x1="0" y1="123.89999999999999" x2="271.40625" y2="123.89999999999999" fill="rgb(0, 0, 0)" stroke="rgb(60, 60, 60)" stroke-width="1px" opacity="0.25"></line><line x1="0" y1="106.2" x2="271.40625" y2="106.2" fill="rgb(0, 0, 0)" stroke="rgb(60, 60, 60)" stroke-width="1px" opacity="0.25"></line><line x1="0" y1="88.5" x2="271.40625" y2="88.5" fill="rgb(0, 0, 0)" stroke="rgb(60, 60, 60)" stroke-width="1px" opacity="0.25"></line><line x1="0" y1="70.8" x2="271.40625" y2="70.8" fill="rgb(0, 0, 0)" stroke="rgb(60, 60, 60)" stroke-width="1px" opacity="0.25"></line><line x1="0" y1="53.10000000000001" x2="271.40625" y2="53.10000000000001" fill="rgb(0, 0, 0)" stroke="rgb(60, 60, 60)" stroke-width="1px" opacity="0.25"></line><line x1="0" y1="35.400000000000006" x2="271.40625" y2="35.400000000000006" fill="rgb(0, 0, 0)" stroke="rgb(60, 60, 60)" stroke-width="1px" opacity="0.25"></line><line x1="0" y1="17.69999999999999" x2="271.40625" y2="17.69999999999999" fill="rgb(0, 0, 0)" stroke="rgb(60, 60, 60)" stroke-width="1px" opacity="0.25"></line><line x1="0" y1="0" x2="271.40625" y2="0" fill="rgb(0, 0, 0)" stroke="rgb(60, 60, 60)" stroke-width="1px" opacity="0.25"></line></g></g></g><g><g><line x1="0" y1="159.3" x2="271.40625" y2="159.3" fill="rgb(0, 0, 0)" stroke="rgb(153, 153, 153)" stroke-width="1.5px"></line></g></g><g><g><line x1="24.673295454545457" y1="0" x2="24.673295454545457" y2="177" fill="rgb(0, 0, 0)" stroke="rgb(153, 153, 153)" stroke-width="1.5px"></line></g></g><g><g><g><g><g><path stroke="rgb(255, 112, 67)" stroke-width="2px" d="M24.673295454545457,23.24676697254182L24.87068181818182,92.36555342674255L25.265454545454546,93.32110585570335L25.462840909090907,94.12410496473312L25.660227272727273,95.35280274152755L25.857613636363638,97.1359147310257L26.055,99.41590111255645L26.252386363636365,101.99447422027588L26.44977272727273,104.61941995024681L26.64715909090909,106.73989527225494L26.844545454545454,107.93829866051674L27.04193181818182,108.44612925052643L27.23931818181818,108.66536398530006L27.436704545454546,108.79141564965248L27.63409090909091,108.88828067779541L27.831477272727273,108.97586696147918L28.028863636363635,109.062192517519L28.22625,109.15181495547294L28.423636363636362,109.24765663146972L28.621022727272727,109.3522917509079L28.818409090909093,109.46772481799125L29.015795454545454,109.59527458548546L29.21318181818182,109.73513095378875L29.410568181818185,109.8866661965847L29.607954545454543,110.048508810997L29.80534090909091,110.2189760684967L30.002727272727274,110.39692856669426L30.3975,110.77907146811485L30.594886363636366,110.98999806046486L30.792272727272728,111.22153412103653L30.98965909090909,111.48064266443252L31.187045454545455,111.77488805651664L31.384431818181817,112.11199818849563L31.779204545454547,112.94338740706444L31.97659090909091,113.44759933948518L32.17397727272727,114.01336010098458L32.37136363636363,114.63699300885202L32.56875,115.30762099027635L32.963522727272725,116.71389937698842L33.160909090909094,117.40144959390165L33.358295454545456,118.05119644403459L33.55568181818182,118.65054583847524L33.75306818181818,119.19444167912008L33.95045454545454,119.6823538273573L34.34522727272727,120.50340402424337L34.54261363636363,120.84656459391118L34.74,121.15022324323655L34.937386363636364,121.4194861829281L35.134772727272725,121.6592037856579L35.33215909090909,121.87455874979497L35.529545454545456,122.06988977193834L35.72693181818182,122.24836977124215L35.92431818181818,122.41216413974763L36.3190909090909,122.70652821958066L36.51647727272727,122.83996753692628L36.713863636363634,122.96672869026662L36.91125,123.08720994293691L37.108636363636364,123.20184648334981L37.30602272727273,123.31147440075875L37.50340909090909,123.41696934700013L37.70079545454545,123.51875859797002L37.89818181818182,123.61749098002912L38.09556818181818,123.71353574395181L38.29295454545455,123.80716455280782L38.68772727272728,123.98881219625474L38.885113636363634,124.07728468179704L39.082499999999996,124.16479711532594L39.279886363636365,124.25158423483373L39.47727272727273,124.33765922784806L39.674659090909095,124.42371839582921L39.87204545454545,124.50988833904267L40.06943181818182,124.59615850746633L40.26681818181818,124.68320146501065L40.66159090909091,124.85948178470136L40.85897727272727,124.94924928545953L41.25375,125.1335370719433L41.451136363636365,125.22837913334371L41.64852272727273,125.32524416148664L41.84590909090909,125.4242772191763L42.04329545454546,125.52543083131314L42.24068181818181,125.62918502390386L42.43806818181818,125.73578772246839L42.63545454545454,125.84470087587835L42.83284090909091,125.95633857250215L43.030227272727274,126.07048453688623L43.227613636363635,126.18705436885358L43.425000000000004,126.30586344301702L43.62238636363636,126.42686428427697L43.81977272727273,126.54970082938672L44.21454545454546,126.79790592491628L44.41193181818182,126.92281027436258L44.609318181818175,127.04792298674585L44.806704545454544,127.1728827238083L45.004090909090905,127.29708285927774L45.201477272727274,127.42001171708108L45.398863636363636,127.54129740893842L45.596250000000005,127.66085289716722L45.79363636363637,127.778512018919L45.99102272727272,127.89393717348577L46.18840909090909,128.0070597857237L46.38579545454545,128.1178139179945L46.58318181818182,128.22606242001058L46.78056818181818,128.3319239795208L46.97795454545455,128.43508473336698L47.175340909090906,128.53592711985112L47.372727272727275,128.63429816365243L47.57011363636364,128.73054074048997L47.7675,128.82452825009824L47.96488636363637,128.9164347678423L48.16227272727273,129.00669811964036L48.35965909090909,129.09529456794263L48.55704545454545,129.18205794990064L48.75443181818182,129.26734960377217L48.95181818181818,129.35137261748315L49.149204545454545,129.43397137820722L49.346590909090914,129.51532787382604L49.54397727272727,129.59560299217702L49.74136363636364,129.67469650804998L50.13613636363637,129.82930708229543L50.33352272727273,129.90508525371553L50.53090909090909,129.97984007298948L50.925681818181815,130.12615569233895L51.123068181818184,130.19823608100415L51.517840909090914,130.3397303402424L51.715227272727276,130.4090307980776L51.91261363636363,130.47781166732312L52.11,130.545695784688L52.30738636363636,130.61290997564794L52.50477272727273,130.67934610247613L52.70215909090909,130.74487756490709L52.89954545454546,130.80954128801824L53.096931818181815,130.8733979344368L53.29431818181818,130.93629980385305L53.491704545454546,130.99842360913755L53.88647727272728,131.120434615016L54.08386363636364,131.17995783984662L54.28125,131.23891400098802L54.47863636363636,131.2972714483738L54.87340909090909,131.41164160072805L55.070795454545454,131.4677967309952L55.26818181818182,131.52330567240716L55.46556818181818,131.5775987237692L55.66295454545455,131.63113217353822L55.86034090909091,131.68387700915338L56.05772727272727,131.73600730597974L56.25511363636364,131.78719601333142L56.4525,131.8375829190016L56.64988636363636,131.88719176054002L57.04465909090909,131.98449461460115L57.242045454545455,132.03182992637159L57.43943181818182,132.07802056074144L57.636818181818185,132.12349379360677L57.83420454545454,132.1680148869753L58.03159090909091,132.2118001163006L58.42636363636364,132.29745310842992L58.62375,132.3392654836178L58.82113636363637,132.38036045730115L59.215909090909086,132.46038501262666L59.413295454545455,132.49911678135396L59.61068181818182,132.53697289824487L59.808068181818186,132.57385841310025L60.20284090909091,132.6455141633749L60.40022727272727,132.68019999861718L60.59761363636363,132.71431349515916L60.795,132.74771222770215L60.99238636363636,132.7804172962904L61.18977272727273,132.81259222626687L61.38715909090909,132.84406294226648L61.584545454545456,132.87505890727044L61.78193181818182,132.90537703335286L61.97931818181818,132.934830057621L62.17670454545455,132.96362634301187L62.37409090909091,132.99169203937055L62.96625,133.07288764715196L63.75579545454545,133.1745476603508L63.95318181818182,133.19910547435285L64.15056818181819,133.22324919998647L64.34795454545454,133.2468284994364L64.54534090909091,133.26997261047364L64.74272727272727,133.29262350797654L65.1375,133.33708921372892L65.33488636363637,133.35893303453923L65.53227272727273,133.38061069250108L65.7296590909091,133.4020667999983L65.92704545454545,133.42332509458066L66.51920454545454,133.48559396266938L66.71659090909091,133.50613485574723L66.91397727272727,133.526248472929L67.11136363636363,133.54618801474572L67.30875,133.56611964404584L67.50613636363636,133.5860723733902L67.70352272727273,133.6060435652733L67.90090909090908,133.62600156962873L68.09829545454545,133.64583297371865L68.29568181818182,133.66568020284177L68.49306818181817,133.68555908203126L68.69045454545454,133.70553818643094L69.08522727272727,133.74527484476567L69.28261363636364,133.76523548662664L69.48,133.78531217873098L69.87477272727273,133.82502773702146L70.0721590909091,133.8448934286833L70.26954545454545,133.86482769548894L70.4669318181818,133.88478306233884L70.66431818181817,133.90472260415555L70.86170454545454,133.9247333586216L71.05909090909091,133.94478367567064L71.45386363636364,133.98477353453637L71.65125,134.00472098886968L71.84863636363636,134.0245761305094L72.04602272727273,134.04432577192784L72.2434090909091,134.06394353806974L72.44079545454547,134.0833898663521L72.6381818181818,134.1026462942362L72.83556818181818,134.12158885896207L73.03295454545454,134.1402149230242L73.23034090909091,134.15856404900552L73.42772727272727,134.17663359940053L73.62511363636364,134.1943866491318L73.8225,134.21174407303334L74.01988636363636,134.22884565889836L74.21727272727273,134.24564656913282L74.4146590909091,134.26229450404645L74.61204545454547,134.2786918759346L74.80943181818182,134.2948545098305L75.00681818181818,134.31077976822854L75.20420454545454,134.3264861136675L75.59897727272727,134.35727635324002L75.79636363636364,134.37239189743997L75.99375,134.38703269064428L76.19113636363636,134.40139127075673L76.5859090909091,134.42959411740304L76.78329545454545,134.44346739649774L76.98068181818182,134.4571613252163L77.37545454545456,134.48374210596086L77.77022727272727,134.50990616083146L78.16499999999999,134.53580119013787L78.36238636363636,134.54861155450345L78.55977272727273,134.56136653125287L78.7571590909091,134.57408985793592L78.95454545454545,134.58662855923177L79.34931818181819,134.6115899115801L79.54670454545455,134.62397036254407L79.7440909090909,134.63629015088082L79.94147727272727,134.64854927659036L80.13886363636364,134.6608084022999L80.33624999999999,134.67295939028264L80.53363636363636,134.68505499064923L80.73102272727273,134.69703454077245L81.32318181818182,134.73273317813874L81.71795454545455,134.75636786520482L82.11272727272728,134.77968605160714L82.31011363636362,134.79126733839513L82.5075,134.80281961262227L82.70488636363636,134.8143534243107L82.90227272727273,134.82587404847146L83.09965909090909,134.83738676011563L83.29704545454545,134.84891793429853L83.49443181818182,134.86036734580995L83.69181818181818,134.87178774476052L83.88920454545455,134.88319495618344L84.08659090909092,134.89459425508977L84.28397727272728,134.9059777289629L84.48136363636362,134.91737966537477L84.67875,134.9287446767092L85.27090909090909,134.96275531053544L85.46829545454545,134.97404383420945L85.66568181818182,134.9851239949465L85.86306818181818,134.99619624316693L86.06045454545455,135.00720519125463L86.45522727272727,135.0291202247143L86.65261363636364,135.04001576006414L86.85000000000001,135.05085063278676L87.04738636363636,135.06168286800386L87.24477272727272,135.07250719070436L87.44215909090909,135.08313370049L87.63954545454546,135.09379186034204L87.83693181818181,135.10442100763322L88.03431818181818,135.1150422424078L88.23170454545455,135.1256212770939L88.42909090909092,135.13622932434083L88.62647727272727,135.14680835902692L88.82386363636364,135.15739266872407L89.02125000000001,135.16796906590463L89.21863636363635,135.17846633791925L89.41602272727272,135.18893987238408L89.61340909090909,135.1993870317936L89.81079545454546,135.20984474122525L90.00818181818181,135.22028662562371L90.40295454545455,135.2410991817713L90.79772727272727,135.26176667511464L90.99511363636364,135.27214262187482L91.19250000000001,135.28249746859075L91.38988636363636,135.2928470402956L91.58727272727273,135.30316759943963L91.78465909090909,135.31350662112237L91.98204545454544,135.32383245527745L92.17943181818181,135.33411081433297L92.37681818181818,135.34435224831105L92.57420454545455,135.35447763204576L92.7715909090909,135.3644896030426L92.96897727272727,135.3745464116335L93.16636363636364,135.38461377024652L93.36375,135.39468376636506L93.56113636363636,135.40474848747255L93.75852272727273,135.4147340834141L93.9559090909091,135.4247170418501L94.15329545454544,135.43468681275846L94.35068181818181,135.44463548362256L94.54806818181818,135.45458942949773L94.74545454545455,135.46452491283418L94.9428409090909,135.47443402111531L95.14022727272727,135.48434312939645L95.33761363636364,135.49423905014993L95.535,135.5040927708149L95.73238636363637,135.51391747891904L95.92977272727273,135.52368679940702L96.1271590909091,135.5334139198065L96.32454545454546,135.5431278526783L96.52193181818181,135.5528048604727L96.71931818181818,135.56244758069516L96.91670454545454,135.57209293842317L97.1140909090909,135.58177258372308L97.31147727272727,135.59142321646215L97.70625,135.61067700684072L97.90363636363637,135.62029071450235L98.10102272727273,135.6298806846142L98.29840909090909,135.63941526710988L98.49579545454546,135.64893929958345L98.69318181818183,135.65842376947404L98.89056818181818,135.66792670190335L99.08795454545454,135.6773821592331L99.2853409090909,135.68675849139692L99.48272727272727,135.696116361022L99.68011363636363,135.70546104311944L99.8775,135.7147819876671L100.07488636363637,135.72409765720369L100.46965909090909,135.7428002089262L100.66704545454546,135.75212115347387L100.86443181818183,135.76144473552705L101.06181818181818,135.77069974243642L101.25920454545454,135.77996002435685L101.4565909090909,135.78919393122197L101.65397727272727,135.79841728806497L101.85136363636363,135.80763800740243L102.04875,135.81682180166246L102.24613636363637,135.8259976834059L102.64090909090909,135.84425449669362L102.83829545454546,135.8533591657877L103.03568181818183,135.86245855987073L103.23306818181818,135.87155531644822L103.43045454545455,135.8806758105755L103.82522727272726,135.89890888631345L104.02261363636363,135.90797135531903L104.22,135.91702063679696L104.41738636363637,135.92608046829702L104.61477272727272,135.9351429373026L104.81215909090909,135.9441974937916L105.20693181818181,135.9618872433901L105.60170454545455,135.97928950488568L105.79909090909092,135.987993273139L105.99647727272726,135.9965598911047L106.39125,136.01362191438676L106.58863636363635,136.02213578224183L106.78602272727272,136.03060217499734L107.18079545454546,136.04761144816877L107.37818181818182,136.05613586604596L107.57556818181818,136.064689296484L107.77295454545455,136.07325327694417L107.97034090909091,136.081830444932L108.16772727272728,136.0904471755028L108.36511363636363,136.0991588562727L108.5625,136.1079180121422L108.75988636363635,136.11669299304486L109.15465909090909,136.13435636758805L109.35204545454545,136.14321838617326L109.54943181818182,136.15214634239675L109.94420454545455,136.1701341301203L110.33897727272728,136.18811664283277L110.53636363636365,136.19718174934388L110.73374999999999,136.20627059340478L111.12852272727272,136.22449839413167L111.3259090909091,136.23369537591935L111.52329545454545,136.24298730790616L111.72068181818182,136.2523900151253L111.91806818181819,136.2618349224329L112.31284090909091,136.2809304624796L112.51022727272728,136.29061010777951L112.70761363636365,136.30036887824537L112.905,136.31019886136056L113.10238636363636,136.3201000571251L113.29977272727272,136.33001971542836L113.49715909090908,136.3399209111929L113.69454545454545,136.34987485706807L113.89193181818182,136.35991584062577L114.08931818181819,136.37003331184388L114.28670454545454,136.38025892078878L114.48409090909091,136.3906058549881L114.87886363636365,136.4114869862795L115.07625,136.4220660209656L115.27363636363637,136.43275319337846L115.47102272727274,136.44352740347387L115.66840909090908,136.45436491370202L115.86579545454545,136.46529473662378L116.06318181818182,136.4762799471617L116.26056818181819,136.4873653829098L116.45795454545454,136.49848246872426L116.65534090909091,136.50965757966043L116.85272727272728,136.5208933532238L117.05011363636363,136.53218451440335L117.2475,136.54350468814374L117.44488636363637,136.55482749938966L117.64227272727274,136.56618723571302L117.83965909090908,136.57763137221338L118.03704545454545,136.58911770880223L118.23443181818182,136.60061459541322L118.43181818181817,136.6120349943638L118.82659090909091,136.63482567965985L119.02397727272728,136.6461669534445L119.22136363636363,136.65745811462403L119.61613636363637,136.67986372411252L119.81352272727273,136.69097025990487L120.0109090909091,136.70200558304788L120.20829545454546,136.7129749685526L120.40568181818182,136.72382566630841L120.60306818181817,136.7345655888319L120.80045454545454,136.74520528614522L120.99784090909091,136.75572893321515L121.19522727272727,136.7661101549864L121.39261363636363,136.77637532651426L121.59,136.78651917278768L121.78738636363637,136.7965707063675L121.98477272727273,136.80649036467076L122.37954545454546,136.82594724297525L122.5769318181818,136.83543435037137L122.77431818181817,136.844794857502L123.16909090909091,136.8632257461548L123.76125,136.8899199396372L123.95863636363636,136.89846018254758L124.15602272727273,136.90682107508184L124.3534090909091,136.9150975674391L124.55079545454547,136.9232448220253L124.74818181818182,136.93128393888475L124.94556818181819,136.93921755552293L125.14295454545454,136.9470825970173L125.3403409090909,136.9548737883568L125.53772727272727,136.96250409185888L125.73511363636364,136.97010274529458L126.12988636363636,136.98500201404096L126.32727272727273,136.9922340542078L126.5246590909091,136.99938696920873L126.72204545454545,137.00645020902158L126.91943181818182,137.01345542371274L127.11681818181819,137.02036305069925L127.31420454545456,137.02716253995897L127.70897727272727,137.04062173068525L127.90636363636364,137.04722868204118L128.10375,137.05376969575883L128.30113636363637,137.06025795936586L129.28806818181818,137.09166801273824L129.48545454545453,137.09776592552663L129.88022727272727,137.1097586631775L130.07761363636365,137.11569568812848L130.275,137.1216195255518L130.47238636363636,137.12749325037004L130.66977272727274,137.13332213759423L130.8671590909091,137.1390982747078L131.06454545454545,137.14484539926053L131.2619318181818,137.15055823624135L131.4593181818182,137.1562235981226L131.65670454545455,137.1618573099375L131.8540909090909,137.16745673418046L132.05147727272728,137.17302978336812L132.24886363636364,137.17857777625323L132.44625,137.184116537869L132.64363636363638,137.18961969316007L132.84102272727273,137.1950397670269L133.03840909090908,137.20044005960227L133.43318181818182,137.21114701330663L133.63056818181818,137.21644576191903L133.82795454545453,137.2217115417123L134.22272727272727,137.2321019947529L134.42011363636362,137.23720952421428L134.6175,137.24230518490077L134.81488636363636,137.24736655801536L135.01227272727272,137.25241342484952L135.2096590909091,137.25741941034795L135.40704545454545,137.26240429580213L135.60443181818184,137.267385224998L135.80181818181816,137.27233318537475L135.99920454545455,137.27726268321277L136.1965909090909,137.282168443501L136.39397727272726,137.28704387247564L136.59136363636364,137.29186655133964L136.78875,137.29658241122962L136.98613636363635,137.30125738978387L137.18352272727273,137.30584928691388L137.38090909090909,137.31038052141668L137.57829545454544,137.3147957056761L137.77568181818182,137.31919110864402L137.97306818181818,137.32354035526515L138.36784090909092,137.33215312957765L138.56522727272727,137.33642325103284L138.76261363636365,137.34066831618549L138.96,137.34488173127176L139.15738636363636,137.3490687713027L139.35477272727275,137.35322152376176L139.5521590909091,137.35731493234636L139.74954545454545,137.36140965968372L139.94693181818184,137.36545163691045L140.1443181818182,137.36948438286782L140.34170454545455,137.37351976633073L140.5390909090909,137.37755119353534L140.73647727272726,137.3815456956625L140.9338636363636,137.38554019778968L141.32863636363635,137.393399964273L141.52602272727273,137.39728237241508L141.7234090909091,137.4011792868376L141.92079545454544,137.4050722450018L142.11818181818182,137.40894937813283L142.31556818181818,137.4127671673894L142.51295454545453,137.41656385660173L142.71034090909092,137.42033812701703L142.90772727272727,137.42409920990468L143.10511363636363,137.42783523648978L143.3025,137.43155280053617L143.49988636363636,137.43525849580766L143.69727272727272,137.4389510035515L143.8946590909091,137.44261713624002L144.09204545454546,137.44622524380685L144.28943181818184,137.44978587627412L144.68420454545455,137.45696252882482L144.88159090909093,137.46052448004485L145.0789772727273,137.46405214369298L145.2763636363636,137.4675112321973L145.47375,137.47093075811864L145.67113636363635,137.4743423715234L146.0659090909091,137.4810851544142L146.46068181818183,137.48773034960033L146.85545454545453,137.49430828839542L147.05284090909092,137.49752208888532L147.25022727272727,137.5007213830948L147.44761363636363,137.5039233148098L147.645,137.50713579654695L147.84238636363636,137.51033772826196L148.03977272727272,137.51352251619102L148.2371590909091,137.516702029109L148.43454545454546,137.51985648572446L148.8293181818182,137.52609550505878L149.02670454545455,137.5291470989585L149.22409090909093,137.5321841865778L149.4214772727273,137.53521204292775L149.81625000000003,137.54122423678638L150.01363636363635,137.54420066177846L150.2110227272727,137.54715071171523L150.60579545454544,137.55303630530835L150.8031818181818,137.55595734268428L151.00056818181818,137.5588704675436L151.19795454545454,137.5617624923587L151.3953409090909,137.5646149545908L151.59272727272727,137.5674449980259L151.79011363636363,137.5702671289444L151.9875,137.57304969727994L152.18488636363637,137.5757584154606L152.38227272727272,137.578446033597L152.5796590909091,137.5811151891947L152.77704545454546,137.58378170728685L152.9744318181818,137.5864521816373L153.1718181818182,137.58910023719073L153.36920454545455,137.5917509302497L153.5665909090909,137.59438052326442L154.15875,137.60216775834562L154.35613636363638,137.6047366887331L154.55352272727274,137.60728847533466L154.75090909090912,137.60982575565578L154.94829545454544,137.61236171722413L155.1456818181818,137.6148818537593L155.34306818181818,137.61738484650851L155.54045454545454,137.61986410170795L155.7378409090909,137.62233940064908L155.93522727272727,137.6248081058264L156.13261363636363,137.62727153599263L156.32999999999998,137.62973628491164L156.52738636363637,137.63217861503364L156.72477272727272,137.63461171388627L157.11954545454546,137.63942779898645L157.3169318181818,137.6418173789978L157.5143181818182,137.6441950902343L157.71170454545455,137.64654774516822L157.9090909090909,137.64886083751918L158.1064772727273,137.65115414857866L158.30386363636364,137.6534289970994L158.50125,137.6556721955538L158.69863636363638,137.65790880024434L158.89602272727274,137.66012694239618L159.0934090909091,137.6623411282897L159.29079545454547,137.66453289538623L159.4881818181818,137.6667418062687L159.68556818181816,137.66893357336522L159.88295454545454,137.67112534046174L160.0803409090909,137.6733039200306L160.27772727272728,137.675485137105L160.47511363636363,137.6776505291462L160.67249999999999,137.67981328368188L160.86988636363637,137.681950981915L161.06727272727272,137.68407153636218L161.26465909090908,137.6861947283149L161.65943181818182,137.69042264968158L162.05420454545455,137.69458199590446L162.64636363636365,137.70068650245668L162.84375,137.7027173817158L163.04113636363638,137.7047482609749L163.23852272727274,137.70677254647018L163.4359090909091,137.70878628194333L163.63329545454548,137.71078155487777L163.83068181818183,137.71277814656497L164.02806818181818,137.71474968194963L164.22545454545457,137.71674495488406L164.4228409090909,137.7187362715602L164.62022727272725,137.72071967571975L164.81761363636363,137.7226951673627L165.015,137.72468912154437L165.21238636363634,137.72668571323157L165.60715909090908,137.73068021535875L165.80454545454546,137.73269526958467L166.00193181818182,137.73463119864465L166.19931818181817,137.7365381151438L166.39670454545455,137.73844107538463L166.5940909090909,137.74036645442249L166.79147727272726,137.74229183346034L166.98886363636365,137.74421061873437L167.18625,137.7461294040084L167.38363636363636,137.74804423302413L167.58102272727274,137.74995906203986L167.7784090909091,137.75187520980836L167.97579545454548,137.75378344506026L168.3705681818182,137.75761178433896L168.56795454545457,137.75953848212959L168.76534090909092,137.7614229798317L168.96272727272725,137.76326791495086L169.16011363636363,137.76511812508107L169.55488636363634,137.76884360164405L169.75227272727273,137.77070304304362L169.94965909090908,137.77254665941L170.14704545454543,137.77434543818237L170.34443181818182,137.7760993793607L170.54181818181817,137.77786650806667L170.73920454545456,137.77965605556966L170.9365909090909,137.78144560307265L171.13397727272726,137.78324701935054L171.33136363636365,137.78505239188672L171.52875,137.78687095195056L171.72613636363636,137.78868819326163L171.92352272727274,137.79052785336972L172.1209090909091,137.79235036969186L172.51568181818183,137.796069252491L172.7130681818182,137.79793792515994L172.91045454545454,137.79983824789525L173.10784090909092,137.80173857063056L173.30522727272728,137.80365208089353L173.50261363636366,137.8055735036731L173.70000000000002,137.80750547647477L173.89738636363634,137.8094585493207L174.09477272727273,137.81142612844707L174.48954545454544,137.8154259055853L174.68693181818182,137.81747920364143L175.08170454545453,137.82168602496387L175.2790909090909,137.82380921691657L175.47647727272727,137.825950871408L175.67386363636362,137.82810966968538L175.87125,137.83026451170446L176.06863636363636,137.8324404537678L176.26602272727274,137.8346322208643L176.4634090909091,137.83686618804933L176.66079545454545,137.83914631158115L176.85818181818183,137.84146204143764L177.0555681818182,137.84379491508008L177.25295454545454,137.84616998881103L177.45034090909093,137.84857803136111L177.64772727272728,137.8510282739997L177.84511363636364,137.85351544171573L178.23988636363637,137.85854780226947L178.4372727272727,137.86112068891526L178.63465909090908,137.86373709440232L178.83204545454544,137.8664102062583L179.02943181818182,137.8691334307194L179.22681818181817,137.87190413028003L179.42420454545453,137.8746932923794L179.6215909090909,137.87751674205066L179.81897727272727,137.88039294183255L180.01636363636362,137.88332189172507L180.21375,137.8862930417061L180.41113636363636,137.88931298553945L180.6085227272727,137.8923830419779L180.8059090909091,137.8955045297742L181.00329545454545,137.89865371137859L181.2006818181818,137.90186091810466L181.3980681818182,137.9051195561886L181.59545454545454,137.90841643810273L181.79284090909093,137.91175156384708L181.99022727272728,137.91514207720758L182.18761363636364,137.9185589656234L182.38500000000002,137.9219956353307L182.58238636363637,137.92548373639585L182.9771590909091,137.93256016373635L183.17454545454547,137.93613134622575L183.3719318181818,137.93972626626493L183.56931818181818,137.94335679262878L183.76670454545453,137.9469688564539L183.96409090909088,137.95058092027904L184.16147727272727,137.95422463417054L184.35886363636362,137.95787230432035L184.75363636363636,137.96515577584506L184.95102272727271,137.9687863022089L185.1484090909091,137.97241419106723L185.34579545454545,137.9760249361396L185.5431818181818,137.97962908744813L185.7405681818182,137.98322136998178L185.93795454545455,137.98677804619075L186.1353409090909,137.9902819722891L186.33272727272728,137.99375161081554L186.53011363636364,137.99721861183644L186.7275,138.0006605565548L186.92488636363638,138.0040668949485L187.12227272727273,138.0074494957924L187.3196590909091,138.01081495285035L187.51704545454547,138.01415930986406L187.71443181818182,138.01748916059734L187.9118181818182,138.02081769257785L188.10920454545453,138.02413567453624L188.3065909090909,138.02743651270868L188.50397727272727,138.03071229457856L188.70136363636362,138.03396565765144L188.89874999999998,138.03718341439964L189.09613636363636,138.04038138985635L189.29352272727272,138.04354639649392L189.4909090909091,138.04669162184L189.68829545454545,138.04982234090568L189.8856818181818,138.05290558487178L190.0830681818182,138.05597959756852L190.28045454545455,138.05903514772655L190.4778409090909,138.0620392665267L190.87261363636364,138.06799211651088L191.07,138.07091579139234L191.46477272727273,138.07668401598931L191.66215909090909,138.079521971941L191.85954545454547,138.08235333412887L192.05693181818182,138.08518337756396L192.45170454545456,138.0907762080431L192.64909090909092,138.0935297638178L192.8464772727273,138.09624639451505L193.04386363636362,138.09892214387656L193.24124999999998,138.1015741556883L193.43863636363636,138.10419847369195L193.83340909090907,138.1093455657363L194.2281818181818,138.11440562009813L194.42556818181816,138.11689278781415L194.62295454545455,138.11935358047486L194.8203409090909,138.1217827230692L195.01772727272729,138.124186809361L195.4125,138.1288710191846L195.60988636363638,138.13117356151344L195.80727272727273,138.13344577252866L196.0046590909091,138.13564281463624L196.20204545454547,138.13781480044128L196.39943181818182,138.13996964246036L196.59681818181818,138.14212052822114L196.99159090909092,138.14637086838485L197.18897727272727,138.14845713526012L197.38636363636365,138.15052230209113L197.58374999999998,138.15256373137237L197.78113636363636,138.15456032305957L197.97852272727272,138.15653449594976L198.17590909090907,138.15847306251527L198.37329545454546,138.16039052903653L198.5706818181818,138.16228293925525L198.76806818181817,138.16415293067695L198.96545454545455,138.1660018220544L199.1628409090909,138.16781115084888L199.36022727272726,138.16959674209357L199.55761363636364,138.17132694572211L199.755,138.17303473055364L199.95238636363635,138.17473196536304L200.14977272727273,138.17640150636436L200.3471590909091,138.17803675979377L200.54454545454547,138.17966278195382L200.74193181818183,138.1812729790807L200.93931818181818,138.18285284489394L201.13670454545456,138.18441556692125L201.33409090909092,138.1859690576792L201.53147727272727,138.18750276714565L201.72886363636366,138.18901273906232L201.92625,138.19049633592368L202.12363636363636,138.19195355772973L202.32102272727275,138.19339627325536L202.71579545454543,138.19626587927343L202.9131818181818,138.1976756259799L203.11056818181817,138.19906295388938L203.30795454545455,138.2004450067878L203.5053409090909,138.20182442218066L203.70272727272726,138.20319196879865L203.90011363636364,138.20453841537238L204.0975,138.2058584868908L204.29488636363635,138.20717328339816L204.49227272727273,138.20847621113063L204.6896590909091,138.20977650135757L204.88704545454544,138.21108602285386L205.28181818181818,138.21369319707156L205.47920454545454,138.21500271856786L205.67659090909092,138.21629641503097L205.87397727272727,138.21756769269706L206.26875,138.22010497301818L206.46613636363637,138.2213366881013L206.66352272727275,138.22256049066783L206.8609090909091,138.22378165572883L207.05829545454543,138.22498699575664L207.2556818181818,138.22618969827892L207.45306818181817,138.2274003133178L207.65045454545452,138.22860697209836L207.8478409090909,138.22981231212617L208.24261363636361,138.23220452964307L208.44,138.23338085711003L208.63738636363635,138.23455190956594L208.83477272727274,138.23570581823589L209.0321590909091,138.23684390187265L209.22954545454544,138.2379819855094L209.62431818181818,138.24023705273868L209.82170454545454,138.24136986136438L210.01909090909092,138.2424828886986L210.41386363636363,138.24469707459212L210.61125,138.24579163938762L210.80863636363637,138.24687961041928L211.00602272727275,138.24798604398967L211.2034090909091,138.2490792900324L211.59818181818184,138.2512486383319L211.7955681818182,138.25232869684697L211.99295454545452,138.2534100741148L212.38772727272726,138.25557810366155L212.58511363636362,138.2566594809294L212.7825,138.25773162692786L212.97988636363635,138.25880641043187L213.1772727272727,138.25986800640823L213.3746590909091,138.26091509610416L213.57204545454545,138.2619582295418L213.76943181818183,138.26299740672113L213.96681818181818,138.26404054015876L214.16420454545454,138.2651021361351L214.36159090909092,138.26615318208934L214.55897727272728,138.26718972176315L214.75636363636363,138.26822230517865L214.95375,138.2692575260997L215.15113636363637,138.2702980220318L215.34852272727272,138.2713385179639L215.5459090909091,138.27237637639047L215.94068181818182,138.27439802438022L216.33545454545455,138.27641703486444L216.53284090909094,138.27742324322463L216.92761363636362,138.27941983491183L217.125,138.28041681200267L217.32238636363635,138.28141906410457L217.5197727272727,138.28242527246476L217.7171590909091,138.28343675583602L217.91454545454545,138.2844508767128L218.1119318181818,138.28546763509513L218.30931818181818,138.2864896684885L218.50670454545454,138.28751433938743L218.7040909090909,138.28853769153358L218.90147727272728,138.28954521864654L219.09886363636363,138.29055142700673L219.29625000000001,138.29156554788352L219.49363636363637,138.2925651624799L219.69102272727272,138.29355422705413L219.8884090909091,138.2945419728756L220.08579545454546,138.29552048742772L220.28318181818182,138.29649900197984L220.4805681818182,138.29747356027366L220.67795454545455,138.2984467998147L220.8753409090909,138.29941212683917L221.27011363636365,138.30132036209108L221.46749999999997,138.30223030149938L221.8622727272727,138.30409106165172L222.0596590909091,138.30501418858768L222.25704545454545,138.30592940300704L222.4544318181818,138.306852529943L222.6518181818182,138.30779148191215L222.84920454545454,138.308726477623L223.0465909090909,138.3096667483449L223.44136363636363,138.31154333353044L223.63875,138.31247964799405L223.83613636363637,138.31341728121043L224.23090909090908,138.3152727663517L224.42829545454546,138.3161985307932L224.62568181818182,138.31712561398746L224.8230681818182,138.3180645659566L225.2178409090909,138.31992532610894L225.4152272727273,138.32087087184192L225.61261363636365,138.32180982381107L225.81,138.32275536954404L226.00738636363639,138.32370091527702L226.2047727272727,138.32464646101L226.40215909090907,138.3255827754736L226.59954545454545,138.32652963995935L226.7969318181818,138.32748046070338L226.99431818181816,138.32843787521125L227.19170454545454,138.3294150710106L227.3890909090909,138.33038831055165L227.58647727272728,138.33136682510377L227.78386363636363,138.3323374271393L227.98125,138.33331330418588L228.17863636363637,138.334291818738L228.37602272727273,138.33526637703181L228.57340909090908,138.3362343415618L228.77079545454546,138.3372141748667L228.96818181818182,138.33820323944093L229.16556818181817,138.33918834775687L229.36295454545456,138.340166862309L229.5603409090909,138.34114801436664L229.7577272727273,138.34214235395194L229.95511363636365,138.34313669353725L230.1525,138.34414158314468L230.3498863636364,138.34514911025764L230.54727272727274,138.34615927487613L230.7446590909091,138.34716812074186L230.94204545454548,138.34818092286588L231.33681818181816,138.35022498965265L231.53420454545454,138.35126152932645L231.7315909090909,138.35230202525855L231.92897727272725,138.35334252119065L232.12636363636364,138.35439092963935L232.32375,138.3554446130991L232.71852272727273,138.35753219872714L232.91590909090908,138.35857665091754L233.11329545454547,138.35963165313007L233.31068181818182,138.360678742826L233.50806818181817,138.36174693256618L234.10022727272727,138.36501216441394L234.29761363636365,138.3661199167371L234.495,138.36721580028535L234.69238636363636,138.36832619011403L234.88977272727274,138.36943921744825L235.0871590909091,138.37055224478246L235.28454545454548,138.3716718658805L235.48193181818183,138.3728007182479L235.67931818181816,138.37393616437913L235.87670454545454,138.37506897300483L236.0740909090909,138.376221562922L236.27147727272725,138.3773741528392L236.46886363636364,138.37853069901468L236.66625,138.37968856394292L236.86363636363635,138.38086489140989L237.06102272727273,138.38205176889898L237.25840909090908,138.38323600888253L237.45579545454544,138.38442156761886L237.65318181818182,138.38561240136625L237.85056818181818,138.38680587261916L238.04795454545456,138.3880217626691L238.2453409090909,138.38925479650499L238.44272727272727,138.3904865115881L238.64011363636365,138.391719545424L238.8375,138.39295389801265L239.03488636363636,138.39418561309577L239.4296590909091,138.3966609120369L239.82443181818184,138.39915599226953L240.0218181818182,138.40041012614967L240.21920454545455,138.40167744755746L240.41659090909093,138.4029474064708L240.61397727272725,138.40422000288964L241.00875,138.4067678332329L241.40352272727273,138.40926423221828L241.60090909090908,138.41054342240096L241.79829545454544,138.41182525008918L241.99568181818182,138.41310575902463L242.19306818181818,138.41440736800433L242.39045454545453,138.4156839206815L242.58784090909091,138.41700531095267L242.78522727272727,138.41833461374046L242.98261363636362,138.41965204775335L243.18,138.42096552550794L243.37738636363636,138.42228955328466L243.57477272727274,138.4236241310835L243.7721590909091,138.42497321516277L243.96954545454545,138.42630911171437L244.16693181818184,138.42763050198556L244.3643181818182,138.42895848602058L244.56170454545455,138.43028910756112L244.75909090909093,138.4316302791238L244.95647727272728,138.4329820007086L245.35125,138.43573555648328L245.54863636363635,138.4371096968651L245.7460227272727,138.43848911225797L245.94340909090909,138.43986852765084L246.14079545454544,138.44125189930202L246.33818181818182,138.4426273584366L246.53556818181818,138.44399622380735L246.73295454545453,138.4453650891781L246.93034090909092,138.4467392295599L247.12772727272727,138.44813446998597L247.32511363636362,138.4495428979397L247.5225,138.4509552821517L247.71988636363636,138.4523689851165" style="fill: none;" fill="none"></path></g></g></g></g></g></g><g transform="translate(58, 177)" clip-path="url(#clip_1)"><clipPath id="clip_1"><rect width="271" height="23"></rect></clipPath><g><g><line x1="0" y1="0" x2="0" y2="5" style="visibility: inherit;" fill="rgb(0, 0, 0)" stroke="rgb(204, 204, 204)" stroke-width="1px"></line><line x1="24.673295454545457" y1="0" x2="24.673295454545457" y2="5" style="visibility: inherit;" fill="rgb(0, 0, 0)" stroke="rgb(204, 204, 204)" stroke-width="1px"></line><line x1="49.346590909090914" y1="0" x2="49.346590909090914" y2="5" style="visibility: inherit;" fill="rgb(0, 0, 0)" stroke="rgb(204, 204, 204)" stroke-width="1px"></line><line x1="74.01988636363636" y1="0" x2="74.01988636363636" y2="5" style="visibility: inherit;" fill="rgb(0, 0, 0)" stroke="rgb(204, 204, 204)" stroke-width="1px"></line><line x1="98.69318181818183" y1="0" x2="98.69318181818183" y2="5" style="visibility: inherit;" fill="rgb(0, 0, 0)" stroke="rgb(204, 204, 204)" stroke-width="1px"></line><line x1="123.36647727272727" y1="0" x2="123.36647727272727" y2="5" style="visibility: inherit;" fill="rgb(0, 0, 0)" stroke="rgb(204, 204, 204)" stroke-width="1px"></line><line x1="148.03977272727272" y1="0" x2="148.03977272727272" y2="5" style="visibility: inherit;" fill="rgb(0, 0, 0)" stroke="rgb(204, 204, 204)" stroke-width="1px"></line><line x1="172.7130681818182" y1="0" x2="172.7130681818182" y2="5" style="visibility: inherit;" fill="rgb(0, 0, 0)" stroke="rgb(204, 204, 204)" stroke-width="1px"></line><line x1="197.38636363636365" y1="0" x2="197.38636363636365" y2="5" style="visibility: inherit;" fill="rgb(0, 0, 0)" stroke="rgb(204, 204, 204)" stroke-width="1px"></line><line x1="222.0596590909091" y1="0" x2="222.0596590909091" y2="5" style="visibility: inherit;" fill="rgb(0, 0, 0)" stroke="rgb(204, 204, 204)" stroke-width="1px"></line><line x1="246.73295454545453" y1="0" x2="246.73295454545453" y2="5" style="visibility: inherit;" fill="rgb(0, 0, 0)" stroke="rgb(204, 204, 204)" stroke-width="1px"></line><line x1="271.40625" y1="0" x2="271.40625" y2="5" style="visibility: inherit;" fill="rgb(0, 0, 0)" stroke="rgb(204, 204, 204)" stroke-width="1px"></line></g><g transform="translate(0, 8)"><text x="0" y="0" dx="0em" dy="0.95em" style="text-anchor: middle; visibility: hidden; font-family: &quot;Helvetica Neue&quot;, sans-serif; font-size: 12px; font-weight: 200;" fill="rgb(50, 49, 63)" stroke="none" stroke-width="1px">-500k</text><text x="24.673295454545457" y="0" dx="0em" dy="0.95em" style="text-anchor: middle; visibility: inherit; font-family: &quot;Helvetica Neue&quot;, sans-serif; font-size: 12px; font-weight: 200;" fill="rgb(50, 49, 63)" stroke="none" stroke-width="1px">0</text><text x="49.346590909090914" y="0" dx="0em" dy="0.95em" style="text-anchor: middle; visibility: hidden; font-family: &quot;Helvetica Neue&quot;, sans-serif; font-size: 12px; font-weight: 200;" fill="rgb(50, 49, 63)" stroke="none" stroke-width="1px">500k</text><text x="74.01988636363636" y="0" dx="0em" dy="0.95em" style="text-anchor: middle; visibility: inherit; font-family: &quot;Helvetica Neue&quot;, sans-serif; font-size: 12px; font-weight: 200;" fill="rgb(50, 49, 63)" stroke="none" stroke-width="1px">1M</text><text x="98.69318181818183" y="0" dx="0em" dy="0.95em" style="text-anchor: middle; visibility: hidden; font-family: &quot;Helvetica Neue&quot;, sans-serif; font-size: 12px; font-weight: 200;" fill="rgb(50, 49, 63)" stroke="none" stroke-width="1px">1.5M</text><text x="123.36647727272727" y="0" dx="0em" dy="0.95em" style="text-anchor: middle; visibility: inherit; font-family: &quot;Helvetica Neue&quot;, sans-serif; font-size: 12px; font-weight: 200;" fill="rgb(50, 49, 63)" stroke="none" stroke-width="1px">2M</text><text x="148.03977272727272" y="0" dx="0em" dy="0.95em" style="text-anchor: middle; visibility: hidden; font-family: &quot;Helvetica Neue&quot;, sans-serif; font-size: 12px; font-weight: 200;" fill="rgb(50, 49, 63)" stroke="none" stroke-width="1px">2.5M</text><text x="172.7130681818182" y="0" dx="0em" dy="0.95em" style="text-anchor: middle; visibility: inherit; font-family: &quot;Helvetica Neue&quot;, sans-serif; font-size: 12px; font-weight: 200;" fill="rgb(50, 49, 63)" stroke="none" stroke-width="1px">3M</text><text x="197.38636363636365" y="0" dx="0em" dy="0.95em" style="text-anchor: middle; visibility: hidden; font-family: &quot;Helvetica Neue&quot;, sans-serif; font-size: 12px; font-weight: 200;" fill="rgb(50, 49, 63)" stroke="none" stroke-width="1px">3.5M</text><text x="222.0596590909091" y="0" dx="0em" dy="0.95em" style="text-anchor: middle; visibility: inherit; font-family: &quot;Helvetica Neue&quot;, sans-serif; font-size: 12px; font-weight: 200;" fill="rgb(50, 49, 63)" stroke="none" stroke-width="1px">4M</text><text x="246.73295454545453" y="0" dx="0em" dy="0.95em" style="text-anchor: middle; visibility: hidden; font-family: &quot;Helvetica Neue&quot;, sans-serif; font-size: 12px; font-weight: 200;" fill="rgb(50, 49, 63)" stroke="none" stroke-width="1px">4.5M</text><text x="271.40625" y="0" dx="0em" dy="0.95em" style="text-anchor: middle; visibility: hidden; font-family: &quot;Helvetica Neue&quot;, sans-serif; font-size: 12px; font-weight: 200;" fill="rgb(50, 49, 63)" stroke="none" stroke-width="1px">5M</text></g><line x1="0" y1="0" x2="271.40625" y2="0" fill="rgb(0, 0, 0)" stroke="rgb(204, 204, 204)" stroke-width="1px"></line></g></g></g></g></svg>